IKResults
version=1
nRows=10
nColumns=40
inDegrees=yes

Units are S.I. units (second, meters, Newtons, ...)
Angles are in degrees.

endheader
time	pelvis_tilt	pelvis_list	pelvis_rotation	pelvis_tx	pelvis_ty	pelvis_tz	hip_flexion_r	hip_adduction_r	hip_rotation_r	knee_angle_r	knee_angle_r_beta	ankle_angle_r	subtalar_angle_r	mtp_angle_r	hip_flexion_l	hip_adduction_l	hip_rotation_l	knee_angle_l	knee_angle_l_beta	ankle_angle_l	subtalar_angle_l	mtp_angle_l	lumbar_extension	lumbar_bending	lumbar_rotation	arm_flex_r	arm_add_r	arm_rot_r	elbow_flex_r	pro_sup_r	wrist_flex_r	wrist_dev_r	arm_flex_l	arm_add_l	arm_rot_l	elbow_flex_l	pro_sup_l	wrist_flex_l	wrist_dev_l
      0.00000000	     19.64336750	      2.11213922	     -2.22312031	     -1.10599351	      0.95324582	     -1.46426373	     -0.99845064	     -4.60202273	     -6.11657546	    -58.15401443	     -1.01497903	      3.79620176	    -13.26978798	      4.25164182	    -20.79209869	     -2.51031410	     15.94819490	    -12.47101201	     -0.21766022	     10.05693449	     -1.15885930	     -4.67561638	    -24.78598983	     -2.17920036	      1.47295385	     -6.30094208	    -10.24133571	      1.47332024	     21.55236230	     89.95437384	      0.00000000	      0.00000000	      6.76250184	     12.28455099	     -5.64917763	     22.90886507	     89.95437384	      0.00000000	      0.00000000
      0.01000000	     19.36879458	      1.95564750	     -2.10734380	     -1.09682343	      0.95279780	     -1.46543455	      0.13020272	     -4.34767853	     -6.17832741	    -56.57211579	     -0.98736969	      4.46451801	    -13.26577810	      4.23734856	    -21.19038315	     -2.43826846	     15.80816221	    -12.31326343	     -0.21490699	     10.44880213	     -1.26862951	     -4.66744005	    -24.55261698	     -1.91023943	      1.14139276	     -6.70059503	    -10.19362031	      1.53089854	     20.64186076	     89.95437384	      0.00000000	      0.00000000	      7.84569352	     12.54137969	     -5.73536195	     23.30588815	     89.95437384	      0.00000000	      0.00000000
      0.02000000	     19.28308528	      1.48770418	     -1.60411568	     -1.08747483	      0.95260837	     -1.46665949	      0.71572298	     -3.68095446	     -6.57460456	    -54.43761812	     -0.95011567	      5.07374205	    -13.37974601	      4.38163196	    -21.74324482	     -1.88878740	     15.29722420	    -12.30027960	     -0.21468038	     10.86689096	     -1.10378895	     -4.65474450	    -24.53409849	     -1.21416797	      0.61205026	     -7.09088301	    -10.11054866	      1.35105228	     19.69361633	     89.95437384	      0.00000000	      0.00000000	      8.79671529	     12.90159415	     -6.05580493	     24.01999164	     89.95437384	      0.00000000	      0.00000000
      0.03000000	     18.91149016	      1.50594724	     -1.49876439	     -1.07816668	      0.95159498	     -1.46793148	      1.87384545	     -3.81931360	     -6.93600377	    -52.65496017	     -0.91900242	      5.55142920	    -13.39638642	      4.41508747	    -21.95672394	     -1.98912871	     15.38601518	    -12.28650783	     -0.21444002	     11.22670448	     -1.05370390	     -4.61488582	    -24.18366812	     -1.10753424	      0.28786495	     -7.67363396	    -10.13507609	      1.30919187	     19.10786445	     89.95437384	      0.00000000	      0.00000000	      9.77132916	     13.15095190	     -6.10328322	     24.62341318	     89.95437384	      0.00000000	      0.00000000
      0.04000000	     19.12984964	      0.91627161	     -0.68176231	     -1.06866059	      0.95161052	     -1.46918016	      1.78506304	     -3.08291653	     -7.81708896	    -49.92514973	     -0.87135824	      5.85665384	    -13.86682939	      5.02663516	    -22.85073765	     -1.17847083	     14.43051054	    -12.28881400	     -0.21448027	     11.88884201	     -0.57823022	     -4.61095810	    -24.49802234	     -0.21327765	     -0.42432773	     -8.04610023	     -9.95882487	      0.52196518	     18.28312373	     89.95437384	      0.00000000	      0.00000000	     10.66850643	     13.57253244	     -6.51843648	     25.56135466	     89.95437384	      0.00000000	      0.00000000
      0.05000000	     18.61751068	      1.07811678	     -0.86564768	     -1.05945132	      0.94998732	     -1.47022030	      3.10710634	     -3.55193547	     -8.23492863	    -48.05497019	     -0.83871745	      6.28112448	    -13.89415935	      5.07185559	    -22.88512810	     -1.51761900	     14.61814391	    -12.37735015	     -0.21602551	     12.20229773	     -0.48205820	     -4.56922704	    -24.01187612	     -0.34121980	     -0.47736830	     -8.69191642	    -10.08715051	      0.50099707	     17.90574883	     89.95437384	      0.00000000	      0.00000000	     11.55256719	     13.77683654	     -6.47628250	     26.29761853	     89.95437384	      0.00000000	      0.00000000
      0.06000000	     18.72897272	      0.71204585	     -0.07460063	     -1.05048027	      0.94948921	     -1.47148763	      3.13603569	     -3.15724273	     -9.26867124	    -45.27148780	     -0.79013652	      6.47909686	    -14.85419283	      6.09429401	    -23.57957741	     -0.95418796	     13.39507783	    -12.42301926	     -0.21682259	     12.93767641	      0.26769371	     -4.62255889	    -24.27531910	      0.32217614	     -1.24805324	     -8.95461357	     -9.91226374	     -0.47518500	     17.08452138	     89.95437384	      0.00000000	      0.00000000	     12.44391353	     14.17905057	     -6.68356589	     27.28788503	     89.95437384	      0.00000000	      0.00000000
      0.07000000	     18.54240834	      0.64031777	      0.32837499	     -1.04115935	      0.94829784	     -1.47266018	      3.63920802	     -3.27410151	    -10.24179984	    -42.77197362	     -0.74651177	      6.58697384	    -15.26520529	      7.11487431	    -24.00739644	     -0.83614234	     12.69980511	    -12.37246203	     -0.21594020	     13.29026695	      0.78605165	     -4.64631580	    -24.15900866	      0.58015513	     -1.70978611	     -9.44739726	     -9.86833584	     -1.13829357	     16.56962287	     89.95437384	      0.00000000	      0.00000000	     13.24977607	     14.39687165	     -6.55349688	     28.24725177	     89.95437384	      0.00000000	      0.00000000
      0.08000000	     18.33178282	      0.73150032	      0.51186886	     -1.03220640	      0.94705180	     -1.47342817	      4.23053798	     -3.52562926	    -10.95544237	    -40.42200280	     -0.70549704	      7.52462268	    -15.20684448	     14.77412639	    -24.50265606	     -1.08067415	     11.17003847	    -12.14277130	     -0.21193134	     13.82491885	      2.60814877	     -5.01056750	    -24.08472290	      0.57324338	     -2.04309213	     -9.84866570	     -9.81448890	     -1.78862420	     16.14245196	     89.95437384	      0.00000000	      0.00000000	     14.12135821	     14.63716639	     -6.34286827	     29.07057762	     89.95437384	      0.00000000	      0.00000000
      0.09000000	     18.00014642	      0.70434647	      0.81864716	     -1.02288014	      0.94541798	     -1.47412363	      4.85335127	     -3.77114994	    -12.29769528	    -37.90468659	     -0.66156158	      7.38338257	    -15.31862745	     14.94753202	    -24.60824241	     -0.92805655	     10.80190197	    -12.46873963	     -0.21762056	     14.37131580	      2.58984126	     -5.06642778	    -23.82327878	      0.70775419	     -2.41225054	    -10.28645287	     -9.79863153	     -2.17167723	     15.68236453	     89.95437384	      0.00000000	      0.00000000	     14.83663677	     14.84843724	     -6.07267799	     30.05597061	     89.95437384	      0.00000000	      0.00000000
